<svg width="16" height="16" viewBox="0 0 16 16" fill="none" xmlns="http://www.w3.org/2000/svg">
<path d="M3.46983 7.78032C3.32938 7.63969 3.25049 7.44907 3.25049 7.25032C3.25049 7.05157 3.32938 6.86094 3.46983 6.72032L7.71983 2.47032C7.86045 2.32987 8.05108 2.25098 8.24983 2.25098C8.44858 2.25098 8.6392 2.32987 8.77983 2.47032L13.0298 6.72032C13.1622 6.86258 13.2343 7.05063 13.231 7.24495C13.2276 7.43926 13.1491 7.62471 13.0118 7.76232C12.8742 7.89956 12.6888 7.97812 12.4945 7.98147C12.3001 7.98483 12.1121 7.91273 11.9698 7.78032L8.99983 4.81032V12.2503C8.99983 12.4492 8.92081 12.64 8.78016 12.7806C8.63951 12.9213 8.44874 13.0003 8.24983 13.0003C8.05092 13.0003 7.86015 12.9213 7.7195 12.7806C7.57885 12.64 7.49983 12.4492 7.49983 12.2503V4.81032L4.52983 7.78032C4.3892 7.92077 4.19858 7.99966 3.99983 7.99966C3.80108 7.99966 3.61045 7.92077 3.46983 7.78032Z" fill="#3A3A3A"/>
</svg>
