<svg width="54" height="54" viewBox="0 0 54 54" fill="none" xmlns="http://www.w3.org/2000/svg">
<path d="M44.8083 6.07072C43.4087 5.15358 41.5529 4.16251 39.8299 4.58729C37.9934 5.03973 36.7494 6.9436 35.5133 8.22885C35.4749 8.27104 35.4465 8.31214 35.4131 8.35378C33.7267 8.83531 32.38 10.1276 31.8977 11.8212C31.8582 11.8534 31.8204 11.8778 31.7815 11.915C27.2788 16.4201 22.8588 21.0098 18.3961 25.556C16.2903 27.704 14.1672 29.8336 12.0475 31.9704C11.0947 32.9308 10.0647 33.9022 9.45291 35.1316C8.85506 36.3264 8.57988 37.739 8.22372 39.0136C7.73411 40.7789 6.70185 44.057 7.74081 45.7936C8.92843 47.7771 12.0521 46.4592 13.6581 45.8675C19.2227 43.8154 22.8966 39.3938 26.9424 35.2706C31.487 30.6394 36.0309 26.0032 40.5582 21.3536C40.6294 21.3559 40.7027 21.3555 40.785 21.3439C43.2278 20.9717 45.1573 18.9241 45.6099 16.5224C45.6407 16.3646 45.6586 16.2056 45.6694 16.05C45.7206 16.0089 45.7768 15.9673 45.8268 15.9162C47.0596 14.6238 48.9218 13.0925 48.6085 11.0939C48.2847 9.02305 46.4811 7.17051 44.8061 6.0735L44.8083 6.07072ZM9.97708 44.2795C9.97708 44.2795 9.96875 44.2728 9.96597 44.2705C9.96597 44.2705 9.9732 44.2672 9.97821 44.2667C9.97821 44.2667 9.97653 44.2745 9.97708 44.2795ZM10.5058 44.1606C10.5497 44.1456 10.5358 44.1573 10.5058 44.1606ZM12.45 43.7672C12.3738 42.8895 12.0081 42.003 11.1235 41.7635C10.714 41.6541 10.3032 41.6941 9.89507 41.782C10.1119 40.829 10.4426 39.8762 10.5872 39.3717C10.8747 38.3704 11.0861 37.3218 11.5241 36.3775C11.5502 36.3847 11.5735 36.3897 11.6041 36.3914C13.4048 36.5582 12.718 37.7501 13.5511 38.765C14.2942 39.6758 15.8745 39.1958 16.3527 40.3686C16.5644 40.8897 16.4583 41.3064 16.733 41.7092C15.9414 42.224 15.1093 42.6699 14.2384 43.0618C13.6545 43.3234 13.0545 43.5539 12.4472 43.765L12.45 43.7672ZM18.1905 40.6426C18.1694 40.6576 18.1488 40.6776 18.1277 40.6926C17.7703 40.228 17.4715 39.0988 17.2383 38.8662C16.7131 38.3492 16.0766 38.4545 15.4399 38.2131C14.1271 37.7168 14.5818 36.763 13.893 35.9323C13.4612 35.4127 12.8655 35.268 12.2447 35.2172C14.2121 32.7072 16.8432 30.5244 19.0699 28.2543C23.9238 23.3055 28.7372 18.3106 33.6367 13.4074C33.689 13.3536 33.7335 13.2981 33.7703 13.2409C35.1679 13.5177 36.4144 14.1251 37.536 15.0702C38.7076 16.0554 39.3571 17.1968 40.1021 18.4239C35.2782 23.3921 30.4259 28.3331 25.5764 33.2763C23.1656 35.7363 20.8434 38.4498 18.1855 40.6432L18.1905 40.6426ZM43.2022 15.9236C43.1651 16.6923 42.8477 17.236 42.4025 17.6774C41.7186 14.6562 38.3377 11.6984 35.1324 11.1215C36.6743 10.2229 38.9339 10.9493 40.456 12.1518C41.5399 13.0074 43.2741 14.4118 43.2022 15.9236ZM46.2232 11.3206C46.2934 12.0293 45.655 12.7856 45.0022 13.4346C44.3095 12.222 43.1913 11.1702 42.1729 10.3352C41.119 9.47625 39.8593 8.72603 38.5163 8.36978C38.9605 7.85006 39.4357 7.35984 39.9763 7.09537C41.0786 6.55144 42.3661 7.32393 43.3186 7.92816C44.3689 8.59254 46.0914 9.9603 46.2232 11.3206Z" fill="#FAFAFA"/>
<path d="M15.3589 35.0373C18.2334 32.0049 21.119 28.9813 24.0363 25.9923C25.8044 24.1802 27.5614 22.3592 29.3411 20.561C30.7496 19.1404 32.614 17.6291 33.6772 15.9224C33.9874 15.4275 33.4652 14.7304 32.9216 15.1294C31.4012 16.2459 30.1291 17.9629 28.8284 19.3287C26.9924 21.2596 25.1364 23.17 23.2809 25.0854C20.343 28.1172 17.1601 31.062 14.5176 34.3626C14.079 34.9096 14.8864 35.5297 15.3561 35.0351L15.3589 35.0373Z" fill="#FAFAFA"/>
<path d="M37.0629 17.6349C33.7116 20.5906 30.6788 23.9569 27.5789 27.1737C24.3405 30.5347 21.1054 33.903 17.9852 37.3726C17.5093 37.9034 18.3562 38.5597 18.8403 38.0584C21.9936 34.7751 25.0959 31.4416 28.2547 28.1627C31.4019 24.8927 34.7523 21.7675 37.7446 18.355C38.1092 17.9402 37.4875 17.2591 37.0607 17.6377L37.0629 17.6349Z" fill="#FAFAFA"/>
</svg>
