<svg width="75" height="29" viewBox="0 0 75 29" fill="none" xmlns="http://www.w3.org/2000/svg">
<g clip-path="url(#clip0_131_1111)">
<path d="M74.8948 13.3139C74.727 13.1029 74.5192 12.9393 74.2971 12.7904C73.6738 12.3733 73.0074 12.0363 72.357 11.6666C70.1659 10.425 67.8726 9.39443 65.6177 8.28697C64.0307 7.50832 62.3815 6.87525 60.7913 6.10641C59.3786 5.42427 57.9403 4.80756 56.4556 4.30373C53.7005 3.3664 50.8718 2.73333 48.0287 2.16406C44.6886 1.49501 41.3166 1.05497 37.9334 0.693449C35.8958 0.475884 33.8597 0.245232 31.8141 0.125816C29.2108 -0.0246805 26.6043 -0.019773 23.9977 0.0374811C19.9225 0.129088 15.8649 0.452982 11.8264 1.02552C9.49312 1.3576 7.19023 1.82708 4.94486 2.56647C4.17936 2.81839 3.43783 3.11121 2.93602 3.81134C2.83693 3.94875 2.81296 4.10416 2.99195 4.15977C3.47459 4.31027 3.93804 4.51966 4.45264 4.57691C5.26768 4.66688 6.07154 4.56219 6.86741 4.44441C8.53904 4.19576 10.2027 3.8915 11.8791 3.67884C13.6211 3.458 15.3614 3.20608 17.1098 3.03269C18.5225 2.89364 19.9385 2.80203 21.3544 2.71043C24.0584 2.53703 26.7657 2.49613 29.4745 2.5174C29.5688 2.5174 29.6806 2.47978 29.7781 2.59265C29.6806 2.60246 29.6007 2.61228 29.5208 2.61719C27.7277 2.71534 25.941 2.89364 24.1591 3.11939C21.4231 3.46618 18.7191 3.98801 16.0358 4.62762C14.9747 4.88117 13.9183 5.15927 12.878 5.49625C12.822 5.50115 12.7645 5.49952 12.7133 5.51424C11.8184 5.77597 10.933 6.06879 10.07 6.42376C7.77514 7.36764 5.54576 8.45056 3.5497 9.97188C3.22368 10.2205 2.84492 10.407 2.60201 10.7603C1.70386 11.4916 0.941557 12.3504 0.363036 13.363C0.0242337 13.9584 -0.0684576 14.6258 0.0402149 15.308C0.139299 15.9312 0.460522 16.4579 0.789736 16.9716C1.38743 17.904 2.14654 18.6909 2.97437 19.4073C4.21931 20.4837 5.56493 21.4096 6.99206 22.2128C7.30689 22.4762 7.67925 22.643 8.03244 22.8377C10.9155 24.4179 13.8928 25.7724 17.0363 26.7228C18.652 27.2119 20.298 27.5718 21.9537 27.8711C23.2849 28.1116 24.6306 28.2686 25.973 28.4322C28.7218 28.7659 31.4801 28.941 34.2449 28.9753C36.7923 29.0064 39.3397 29.0211 41.8871 28.9295C44.2268 28.8445 46.5616 28.6989 48.8901 28.4486C51.3688 28.1819 53.8139 27.7059 56.2463 27.1497C58.669 26.5952 61.0662 25.9343 63.4298 25.1573C65.346 24.5275 67.251 23.8601 69.0776 22.9849C69.5954 22.7379 70.1116 22.4827 70.5511 22.0983C70.989 21.8513 71.3725 21.5307 71.7273 21.174C72.2259 20.7765 72.7102 20.3414 72.9978 19.7705C73.5348 18.7056 73.6786 17.5899 73.2232 16.4301C72.6079 14.8614 71.5851 13.592 70.4552 12.3995C69.8287 11.7386 69.1304 11.1579 68.4416 10.5608C68.5806 10.5935 68.7085 10.6442 68.8363 10.6998C69.4228 10.9534 70.0077 11.2102 70.5942 11.4638C70.6262 11.4834 70.6566 11.5079 70.6901 11.5226C71.7609 12.0216 72.8092 12.5647 73.8368 13.1519C74.1149 13.3106 74.3578 13.5298 74.6583 13.6525C74.7861 13.7032 74.8804 13.6885 74.9587 13.5887C75.0482 13.4758 74.9555 13.3957 74.89 13.3139H74.8948ZM5.31722 18.9379C4.5741 18.2639 3.89809 17.5343 3.36591 16.6722C3.17414 16.3614 3.00474 16.0326 2.91364 15.6809C2.71867 14.9203 2.90725 14.2218 3.3787 13.6231C3.95562 12.8886 4.70674 12.3487 5.46265 11.822C5.77269 11.6061 6.08432 11.3918 6.39596 11.1758C6.43112 11.1644 6.46947 11.1595 6.49984 11.1399C7.76555 10.335 9.10318 9.67906 10.4696 9.07544C12.4704 8.19046 14.5496 7.55248 16.6527 6.99794C18.1534 6.60207 19.6668 6.25854 21.193 5.96737C22.6153 5.69582 24.0409 5.4439 25.4712 5.23288C26.7161 5.04966 27.9659 4.90408 29.2188 4.77975C30.9991 4.60308 32.7826 4.52456 34.5677 4.49185C35.9677 4.46567 37.3692 4.48858 38.7708 4.49675C40.5767 4.50657 42.3841 4.54583 44.1836 4.71105C46.3667 4.91226 48.5497 5.10692 50.7232 5.41445C52.0832 5.60585 53.448 5.77597 54.792 6.06879C57.1236 6.57589 59.3179 7.48705 61.445 8.57488C62.0571 8.88896 62.6564 9.22921 63.2604 9.55638C64.0915 10.1011 64.9177 10.6507 65.68 11.2953C67.2925 12.6546 68.7005 14.1874 69.6721 16.1046C70.0237 16.7966 70.2267 17.5032 70.078 18.2966C69.9742 18.8577 69.6609 19.2536 69.247 19.5889C68.3233 20.3381 67.2701 20.842 66.1866 21.2984C63.3515 22.4893 60.4254 23.3873 57.464 24.1774C55.5623 24.6845 53.6429 25.1164 51.7108 25.4877C49.5741 25.9 47.4182 26.147 45.2512 26.3318C41.7689 26.6263 38.2817 26.7195 34.7914 26.7277C32.7411 26.7326 30.6891 26.6737 28.6419 26.5494C27.0677 26.4529 25.4983 26.2468 23.929 26.0766C22.1711 25.8852 20.4275 25.5891 18.6951 25.2227C16.7023 24.8023 14.7605 24.202 12.87 23.4249C11.4716 22.8491 10.102 22.2128 8.78835 21.4587C7.54661 20.7471 6.38957 19.9063 5.32202 18.9395L5.31722 18.9379Z" fill="#5374FF"/>
</g>
<defs>
<clipPath id="clip0_131_1111">
<rect width="75" height="29" fill="white"/>
</clipPath>
</defs>
</svg>
