<svg width="43" height="31" viewBox="0 0 43 31" fill="none" xmlns="http://www.w3.org/2000/svg">
<g clip-path="url(#clip0_164_253)">
<path d="M42.9848 18.5021C42.9356 17.7123 42.8173 16.9373 42.5997 16.1763C42.3463 15.2907 41.9987 14.4411 41.5561 13.6309C41.0176 12.6453 40.4033 11.7089 39.6715 10.8479C39.0396 10.1041 38.3953 9.37248 37.6926 8.69169C36.9733 7.99452 36.1864 7.38009 35.3545 6.82219C34.5268 6.26756 33.6616 5.77274 32.7781 5.30741C31.7678 4.77573 30.7242 4.31941 29.6498 3.93109C29.2947 3.80247 28.9154 3.73284 28.5853 3.54114C27.1516 2.70633 25.6504 2.01653 24.06 1.52007C23.6691 1.39801 23.2873 1.24563 22.8872 1.15142C22.4304 0.993303 21.9637 0.86714 21.4952 0.745073C20.2416 0.416558 18.9771 0.140475 17.6801 0.0454431C16.1522 -0.0659734 14.641 0.0306968 13.1373 0.337092C11.7511 0.620549 10.4249 1.06785 9.15377 1.66754C8.02599 2.19922 6.97406 2.85871 5.98547 3.61487C4.99939 4.36857 4.11917 5.22631 3.33731 6.18236C2.5021 7.20313 1.82859 8.32467 1.25262 9.5011C0.958375 10.1016 0.693308 10.716 0.502427 11.3608C0.214854 12.3365 0.0256399 13.3294 0.00313419 14.3403C-0.0268734 15.7085 0.126499 17.0594 0.577446 18.3669C0.841679 19.1345 1.15176 19.88 1.57686 20.5764C1.63938 20.7452 1.74441 20.8918 1.83776 21.0442C1.90528 21.1548 1.94779 21.2867 2.06699 21.3637C2.16785 21.5021 2.2687 21.6398 2.36956 21.7782C2.35873 21.8143 2.3879 21.8347 2.40457 21.8601C2.64713 22.2247 2.91887 22.5688 3.19894 22.9047C4.01498 23.8861 4.92771 24.7717 5.95713 25.5402C6.7515 26.1333 7.56921 26.6896 8.44693 27.1565C9.38716 27.6571 10.3191 28.1773 11.3235 28.55C12.2504 28.8941 13.189 29.2071 14.1442 29.4651C15.3987 29.8035 16.6623 30.1058 17.9418 30.3434C19.0663 30.5523 20.1982 30.7128 21.336 30.8226C22.7797 30.9619 24.2292 31.0069 25.6804 31.002C27.0108 30.9971 28.3344 30.9258 29.6548 30.7628C30.4766 30.6612 31.2885 30.5162 32.0971 30.3434C32.4446 30.2844 32.7814 30.1811 33.1223 30.0959C34.0625 29.86 34.9703 29.5348 35.8572 29.1489C36.424 28.9023 36.9824 28.6393 37.5076 28.3108C37.8127 28.1199 38.1269 27.9438 38.3945 27.7005C38.4211 27.6849 38.4495 27.671 38.4745 27.653C38.9821 27.304 39.4081 26.864 39.8482 26.443C40.0115 26.2865 40.1733 26.1226 40.2758 25.9162C40.9985 25.0847 41.5428 24.1417 42.0396 23.1701C42.1037 23.125 42.1229 23.0521 42.1513 22.9874C42.5013 22.1837 42.7622 21.353 42.8856 20.4871C42.979 19.8309 43.0273 19.1706 42.9856 18.5045L42.9848 18.5021ZM40.8709 16.0771C40.9509 16.4736 41.0576 16.8669 41.1052 17.2667C41.1868 17.9565 41.2102 18.6479 41.1535 19.3451C41.1077 19.9063 41.016 20.4609 40.8584 20.9934C40.5775 21.9404 40.1349 22.8203 39.5764 23.6461C39.1838 24.2261 38.7387 24.7643 38.2444 25.2551C37.6993 25.7958 37.0958 26.2767 36.4356 26.6822C35.6855 27.1426 34.8853 27.4924 34.0484 27.7742C33.329 28.0159 32.5963 28.2084 31.8553 28.3592C30.5225 28.6295 29.1713 28.7729 27.8143 28.8728C26.6882 28.9556 25.5596 28.9605 24.4318 28.9556C23.329 28.9515 22.2271 28.8949 21.131 28.7884C20.2616 28.7041 19.393 28.5992 18.5303 28.4485C17.275 28.2289 16.023 28.0044 14.786 27.6948C13.5074 27.3744 12.2537 26.9812 11.0209 26.5232C10.2457 26.2357 9.52137 25.8384 8.78951 25.4582C7.57087 24.825 6.40725 24.1122 5.35615 23.2283C4.73933 22.7097 4.19586 22.1305 3.76742 21.4505C3.35314 20.7927 3.00222 20.1045 2.73549 19.3762C2.25704 18.0695 2.03865 16.7202 2.07032 15.3341C2.08533 14.6492 2.18702 13.9733 2.33205 13.3024C2.46876 12.6724 2.6388 12.0522 2.88053 11.455C3.11475 10.8774 3.38315 10.3138 3.70157 9.77472C3.83827 9.54288 3.9608 9.30366 4.08916 9.06772C4.67931 8.14526 5.32781 7.26785 6.09467 6.47729C6.15552 6.47237 6.17969 6.41994 6.2147 6.38471C6.91488 5.6646 7.67257 5.01249 8.50361 4.43984C9.05541 4.05971 9.62222 3.70334 10.2199 3.40186C10.9034 3.05697 11.6177 2.78006 12.3487 2.54003C13.2223 2.25411 14.1192 2.08289 15.0261 1.95509C15.7821 1.84859 16.5406 1.79124 17.3067 1.78469C18.2736 1.77649 19.2338 1.8322 20.1899 1.95673C21.0859 2.07306 21.9762 2.23117 22.8564 2.43844C23.0323 2.4794 23.2065 2.52528 23.3815 2.56952C23.3315 2.59737 23.2865 2.59819 23.2415 2.5941C22.6438 2.54084 22.0454 2.49661 21.4444 2.47203C20.3433 2.42697 19.2421 2.42533 18.1427 2.48596C17.2558 2.53511 16.3723 2.6367 15.5004 2.81775C15.0736 2.90623 14.6427 2.98651 14.2251 3.1094C13.8074 3.23228 13.4032 3.40023 12.9964 3.5567C12.8572 3.60995 12.7113 3.66074 12.608 3.77871C12.3704 3.91471 12.117 4.02449 11.897 4.18915C11.4544 4.35054 11.2118 4.69708 11.0301 5.09851C10.9601 5.25416 11.0009 5.31315 11.1751 5.3238C11.3327 5.33363 11.4902 5.3492 11.6477 5.36148C11.8211 5.37459 11.9903 5.39016 12.1654 5.3451C13.6816 4.95678 15.2145 4.65612 16.7774 4.50374C17.9385 4.39069 19.1013 4.33334 20.2666 4.34727C21.3785 4.36119 22.4896 4.41526 23.5982 4.52996C24.5635 4.6299 25.5254 4.75279 26.474 4.94367C27.5109 5.15176 28.5378 5.409 29.5381 5.758C30.1474 5.971 30.7817 6.12829 31.2793 6.57232C31.4269 6.70422 31.5794 6.83202 31.7378 6.95081C31.882 7.05813 32.0095 7.22853 32.2329 7.12531C32.2296 7.11547 32.2313 7.10646 32.2363 7.09745C32.2304 7.10564 32.2296 7.11547 32.2321 7.12531C32.2729 7.12121 32.3179 7.12612 32.3546 7.1122C32.5055 7.05567 32.6347 7.09499 32.7697 7.17036C33.0898 7.34814 33.4182 7.51117 33.7391 7.68648C33.9584 7.80609 34.1709 7.93635 34.386 8.06252C34.7227 8.2747 35.0778 8.45821 35.3987 8.69251C35.9814 9.11687 36.5707 9.53305 37.1058 10.0197C37.6685 10.5309 38.1878 11.0798 38.6637 11.6688C38.8396 11.8859 38.9996 12.1153 39.1672 12.3389C39.8198 13.3081 40.3266 14.3461 40.6892 15.452C40.7459 15.6249 40.8034 15.7969 40.8601 15.969C40.8434 16.0059 40.8601 16.0394 40.8676 16.0747L40.8709 16.0771ZM6.26888 6.24053C6.33723 6.17908 6.40641 6.11928 6.4756 6.05866C6.40725 6.11928 6.33723 6.17908 6.26888 6.24053ZM12.0462 2.58345C12.0462 2.58345 12.047 2.58345 12.0478 2.58345C12.0478 2.58345 12.047 2.58345 12.0462 2.58345ZM12.7814 2.3557C12.7122 2.38765 12.6413 2.41222 12.5671 2.42533C12.6413 2.4114 12.7122 2.38683 12.7814 2.3557ZM13.0698 2.2705C13.0006 2.28688 12.9314 2.30081 12.8639 2.32293C12.9314 2.30081 13.0014 2.28688 13.0706 2.2705H13.0698ZM13.0698 2.2705C12.9789 2.3131 12.883 2.34341 12.7822 2.3557C12.883 2.34341 12.9789 2.3131 13.0706 2.2705H13.0698ZM13.0698 2.2705C13.0056 2.26558 12.9439 2.2705 12.888 2.29098C12.9447 2.2705 13.0056 2.26558 13.0698 2.2705Z" fill="#5374FF"/>
</g>
<defs>
<clipPath id="clip0_164_253">
<rect width="43" height="31" fill="white"/>
</clipPath>
</defs>
</svg>
