<svg width="24" height="24" viewBox="0 0 24 24" fill="none" xmlns="http://www.w3.org/2000/svg">
<path d="M2.45383 16.0603C2.73512 16.3415 3.11658 16.4995 3.51433 16.4995C3.91207 16.4995 4.29354 16.3415 4.57483 16.0603L11.9998 8.63533L19.4248 16.0603C19.7077 16.3336 20.0866 16.4848 20.4799 16.4813C20.8732 16.4779 21.2494 16.3202 21.5276 16.0421C21.8057 15.7639 21.9634 15.3877 21.9668 14.9944C21.9703 14.6011 21.8191 14.2222 21.5458 13.9393L13.0603 5.45383C12.779 5.17262 12.3976 5.01465 11.9998 5.01465C11.6021 5.01465 11.2206 5.17262 10.9393 5.45383L2.45383 13.9393C2.17262 14.2206 2.01465 14.6021 2.01465 14.9998C2.01465 15.3976 2.17262 15.779 2.45383 16.0603Z" fill="#FAFAFA"/>
</svg>
