<svg width="32" height="32" viewBox="0 0 32 32" fill="none" xmlns="http://www.w3.org/2000/svg">
<path d="M17.3698 2.66699C18.8698 2.67099 19.6311 2.67899 20.2885 2.69766L20.5471 2.70699C20.8458 2.71766 21.1405 2.73099 21.4965 2.74699C22.9151 2.81366 23.8831 3.03766 24.7325 3.36699C25.6125 3.70566 26.3538 4.16433 27.0951 4.90433C27.7731 5.57085 28.2977 6.37711 28.6325 7.26699C28.9618 8.11633 29.1858 9.08433 29.2525 10.5043C29.2685 10.859 29.2818 11.1537 29.2925 11.4537L29.3005 11.7123C29.3205 12.3683 29.3285 13.1297 29.3311 14.6297L29.3325 15.6243V17.371C29.3358 18.3435 29.3255 19.3161 29.3018 20.2883L29.2938 20.547C29.2831 20.847 29.2698 21.1417 29.2538 21.4963C29.1871 22.9163 28.9605 23.883 28.6325 24.7337C28.2987 25.624 27.774 26.4305 27.0951 27.0963C26.4284 27.7741 25.6222 28.2987 24.7325 28.6337C23.8831 28.963 22.9151 29.187 21.4965 29.2537C21.1801 29.2686 20.8636 29.2819 20.5471 29.2937L20.2885 29.3017C19.6311 29.3203 18.8698 29.3297 17.3698 29.3323L16.3751 29.3337H14.6298C13.6568 29.337 12.6838 29.3268 11.7111 29.303L11.4525 29.295C11.136 29.283 10.8195 29.2692 10.5031 29.2537C9.08447 29.187 8.11647 28.963 7.26581 28.6337C6.37603 28.2995 5.5701 27.7748 4.90447 27.0963C4.22587 26.43 3.70077 25.6237 3.36581 24.7337C3.03648 23.8843 2.81247 22.9163 2.74581 21.4963C2.73095 21.1799 2.71762 20.8635 2.70581 20.547L2.69914 20.2883C2.67457 19.3161 2.66346 18.3435 2.66581 17.371V14.6297C2.66209 13.6571 2.67187 12.6846 2.69514 11.7123L2.70448 11.4537C2.71514 11.1537 2.72848 10.859 2.74448 10.5043C2.81114 9.08433 3.03514 8.11766 3.36447 7.26699C3.69929 6.3762 4.22544 5.56969 4.90581 4.90433C5.57126 4.22629 6.37667 3.70164 7.26581 3.36699C8.11647 3.03766 9.08314 2.81366 10.5031 2.74699C10.8578 2.73099 11.1538 2.71766 11.4525 2.70699L11.7111 2.69899C12.6834 2.6753 13.6559 2.66508 14.6285 2.66833L17.3698 2.66699ZM15.9991 9.33366C14.231 9.33366 12.5353 10.036 11.2851 11.2863C10.0349 12.5365 9.33247 14.2322 9.33247 16.0003C9.33247 17.7684 10.0349 19.4641 11.2851 20.7144C12.5353 21.9646 14.231 22.667 15.9991 22.667C17.7673 22.667 19.4629 21.9646 20.7132 20.7144C21.9634 19.4641 22.6658 17.7684 22.6658 16.0003C22.6658 14.2322 21.9634 12.5365 20.7132 11.2863C19.4629 10.036 17.7673 9.33366 15.9991 9.33366ZM15.9991 12.0003C16.5244 12.0002 17.0446 12.1036 17.5299 12.3046C18.0153 12.5055 18.4563 12.8001 18.8278 13.1714C19.1993 13.5428 19.494 13.9837 19.6951 14.469C19.8962 14.9542 19.9997 15.4744 19.9998 15.9997C19.9999 16.5249 19.8965 17.0451 19.6956 17.5304C19.4946 18.0158 19.2001 18.4568 18.8287 18.8283C18.4573 19.1998 18.0164 19.4945 17.5312 19.6956C17.0459 19.8967 16.5258 20.0002 16.0005 20.0003C14.9396 20.0003 13.9222 19.5789 13.172 18.8288C12.4219 18.0786 12.0005 17.0612 12.0005 16.0003C12.0005 14.9395 12.4219 13.922 13.172 13.1719C13.9222 12.4218 14.9396 12.0003 16.0005 12.0003M23.0005 7.33366C22.5584 7.33366 22.1345 7.50925 21.822 7.82181C21.5094 8.13438 21.3338 8.5583 21.3338 9.00033C21.3338 9.44235 21.5094 9.86628 21.822 10.1788C22.1345 10.4914 22.5584 10.667 23.0005 10.667C23.4425 10.667 23.8664 10.4914 24.179 10.1788C24.4915 9.86628 24.6671 9.44235 24.6671 9.00033C24.6671 8.5583 24.4915 8.13438 24.179 7.82181C23.8664 7.50925 23.4425 7.33366 23.0005 7.33366Z" fill="#FAFAFA"/>
</svg>
