<svg width="37" height="34" viewBox="0 0 37 34" fill="none" xmlns="http://www.w3.org/2000/svg">
<g clip-path="url(#clip0_335_918)">
<path d="M33.6085 10.9114C29.2495 5.23658 21.4292 0.723789 14.313 0.0698387C6.30456 -0.670584 0.757789 4.5448 0.0590675 12.4625C-0.645029 20.4234 5.34248 25.455 11.0344 29.8273C17.1025 34.286 25.686 35.9236 31.9745 30.9676C38.392 25.9144 38.3598 17.1104 33.6085 10.9168V10.9114ZM10.7173 3.77195C14.3452 3.13962 18.0915 4.307 21.3217 5.93918C19.1073 6.86335 16.8553 8.17666 14.8021 9.7764C14.5602 9.59805 14.3076 9.4197 14.0496 9.24135C14.1087 8.56578 13.7809 7.8686 13.2165 7.42543C12.4157 6.78769 11.3192 6.47423 10.3088 6.4418C9.91104 6.43099 9.50256 6.51206 9.16395 6.685C8.16424 6.36073 7.15915 6.18778 6.17019 6.23102C7.28815 4.98798 8.78771 4.10703 10.7173 3.77195ZM3.69242 12.2895C3.83754 11.0086 4.1439 9.79262 4.62226 8.69009C6.00358 8.37663 7.28815 8.45769 8.51897 8.80359C8.56735 8.97653 8.65335 9.15488 8.79309 9.31702C9.38969 9.99258 10.3249 10.3493 11.158 10.6195C11.588 10.76 12.0663 10.8357 12.5124 10.7816C12.7113 10.9168 12.9102 11.0519 13.109 11.1924C9.99166 14.0352 7.57301 17.5698 6.84204 21.38C4.68675 18.8939 3.26244 15.9808 3.68705 12.2895H3.69242ZM33.0172 23.6012C29.9321 32.6755 19.0052 31.2108 12.851 26.6872C11.7277 25.8225 10.5775 24.9307 9.48106 23.9795C10.0992 16.3429 18.5591 10.1115 25.3958 8.3442C30.5126 11.8409 35.2101 17.1536 33.0172 23.6012Z" fill="#FAFAFA"/>
<path d="M27.5456 14.7058C28.1745 15.7002 28.9001 16.5757 29.3408 17.6783C29.7977 18.824 29.9428 20.0725 30.5287 21.1588C30.9371 21.9154 31.8885 21.4614 31.9798 20.7643C32.297 18.4025 30.7544 14.7652 28.5454 13.6951C27.9273 13.3979 27.121 14.0356 27.5403 14.7058H27.5456Z" fill="#FAFAFA"/>
<path d="M25.9871 11.8525C24.9551 11.8525 24.9551 13.4631 25.9871 13.4631C27.0191 13.4631 27.0191 11.8525 25.9871 11.8525Z" fill="#FAFAFA"/>
</g>
<defs>
<clipPath id="clip0_335_918">
<rect width="37" height="34" fill="white"/>
</clipPath>
</defs>
</svg>
