<svg width="47" height="49" viewBox="0 0 47 49" fill="none" xmlns="http://www.w3.org/2000/svg">
<g clip-path="url(#clip0_171_337)">
<path d="M46.3341 0.5H0.224609V48.5H46.3341V0.5Z" fill="#222222"/>
<path d="M15.7663 28.0688C15.7663 28.6607 15.6763 29.1763 15.4962 29.6158C15.3104 30.0611 15.0684 30.4331 14.77 30.7319C14.4717 31.0308 14.1312 31.2563 13.7485 31.4087C13.3657 31.5552 12.9717 31.6313 12.5665 31.6372C12.1668 31.6372 11.7785 31.564 11.4013 31.4175C11.0186 31.2652 10.6781 31.0396 10.3797 30.7408C10.0758 30.4419 9.83379 30.0698 9.65367 29.6245C9.46791 29.1792 9.37506 28.6607 9.37506 28.0688V24.4478C8.82341 24.4361 8.3422 24.3306 7.93131 24.1313C7.51477 23.938 7.1686 23.6861 6.89281 23.3755C6.61701 23.0708 6.4116 22.7222 6.2765 22.3296C6.13575 21.937 6.06543 21.5357 6.06543 21.1255C6.06543 20.7095 6.13857 20.3023 6.28491 19.9038C6.42566 19.5054 6.63955 19.148 6.92658 18.8315C7.21367 18.521 7.57108 18.269 7.99886 18.0757C8.42664 17.8882 8.92474 17.7944 9.49321 17.7944H15.6481C16.2166 17.7944 16.7147 17.8882 17.1425 18.0757C17.5703 18.269 17.9277 18.521 18.2148 18.8315C18.4962 19.148 18.7101 19.5054 18.8564 19.9038C18.9971 20.3023 19.0675 20.7095 19.0675 21.1255C19.0675 21.5357 19 21.937 18.8649 22.3296C18.7242 22.7222 18.5187 23.0708 18.2485 23.3755C17.9727 23.6861 17.6294 23.938 17.2185 24.1313C16.802 24.3306 16.3179 24.4361 15.7663 24.4478V28.0688ZM19.3545 21.1255C19.3545 20.5337 19.4474 20.0151 19.6332 19.5698C19.8133 19.1304 20.0525 18.7612 20.3508 18.4624C20.6491 18.1636 20.9925 17.938 21.3808 17.7857C21.7636 17.6392 22.1548 17.563 22.5544 17.5571C22.954 17.5571 23.3452 17.6304 23.728 17.7768C24.1107 17.9292 24.4541 18.1518 24.758 18.4448C25.0563 18.7436 25.2983 19.1157 25.4841 19.5611C25.6642 20.0063 25.7542 20.5279 25.7542 21.1255V28.0688C25.7542 28.6607 25.6642 29.1792 25.4841 29.6245C25.2983 30.0698 25.0563 30.4419 24.758 30.7408C24.4541 31.0396 24.1107 31.2652 23.728 31.4175C23.3452 31.564 22.954 31.6372 22.5544 31.6372C22.1548 31.6372 21.7636 31.564 21.3808 31.4175C20.9925 31.2652 20.6491 31.0396 20.3508 30.7408C20.0525 30.4419 19.8133 30.0698 19.6332 29.6245C19.4474 29.1792 19.3545 28.6607 19.3545 28.0688V21.1255ZM26.0413 20.8179C26.0413 20.3374 26.137 19.895 26.3284 19.4908C26.5198 19.0923 26.773 18.7495 27.0883 18.4624C27.3978 18.1753 27.7524 17.9526 28.1521 17.7944C28.5461 17.6362 28.9513 17.5571 29.3678 17.5571C29.7731 17.5571 30.1643 17.6392 30.5414 17.8033C30.9185 17.9673 31.2647 18.2222 31.5799 18.5679L33.2346 20.4224L34.8979 18.5679C35.2132 18.2222 35.5593 17.9673 35.9364 17.8033C36.3135 17.6392 36.7047 17.5571 37.11 17.5571C37.5265 17.5571 37.9345 17.6362 38.3342 17.7944C38.7282 17.9526 39.0828 18.1753 39.398 18.4624C39.7076 18.7495 39.958 19.0923 40.1494 19.4908C40.3352 19.895 40.428 20.3374 40.428 20.8179V28.104C40.428 28.7016 40.338 29.2232 40.1579 29.6685C39.9778 30.1138 39.7413 30.48 39.4487 30.7671C39.1503 31.0601 38.8155 31.2798 38.4439 31.4263C38.0668 31.5669 37.6813 31.6372 37.2873 31.6372C36.8933 31.6372 36.5049 31.5787 36.1221 31.4614C35.7394 31.3384 35.396 31.1567 35.0921 30.9165C34.7882 30.6821 34.5405 30.3862 34.3491 30.0288C34.1578 29.6773 34.0536 29.27 34.0367 28.8071C33.9073 28.8364 33.775 28.8569 33.64 28.8686C33.4992 28.8862 33.3642 28.895 33.2346 28.895C33.0996 28.895 32.9673 28.8862 32.8379 28.8686C32.7028 28.8569 32.5649 28.8364 32.4242 28.8071C32.4073 29.2583 32.3059 29.6597 32.1202 30.0112C31.9288 30.3628 31.6868 30.6587 31.3941 30.8989C31.0958 31.1391 30.7609 31.3237 30.3894 31.4527C30.0123 31.5757 29.6296 31.6372 29.2412 31.6372C28.8416 31.6372 28.4504 31.5669 28.0676 31.4263C27.6793 31.2857 27.3359 31.0688 27.0376 30.7759C26.7393 30.4888 26.5001 30.1226 26.32 29.6772C26.1342 29.2378 26.0413 28.7134 26.0413 28.104V20.8179Z" fill="#FAFAFA"/>
</g>
<defs>
<clipPath id="clip0_171_337">
<rect x="0.224609" y="0.5" width="46.1095" height="48" rx="23.0548" fill="white"/>
</clipPath>
</defs>
</svg>
