<svg width="24" height="24" viewBox="0 0 24 24" fill="none" xmlns="http://www.w3.org/2000/svg">
<path d="M16 18C16.2652 18 16.5196 17.8946 16.7071 17.7071C16.8946 17.5196 17 17.2652 17 17C17 16.7348 16.8946 16.4804 16.7071 16.2929C16.5196 16.1054 16.2652 16 16 16V18ZM8 16C7.73478 16 7.48043 16.1054 7.29289 16.2929C7.10536 16.4804 7 16.7348 7 17C7 17.2652 7.10536 17.5196 7.29289 17.7071C7.48043 17.8946 7.73478 18 8 18V16ZM8.707 7.293C8.61475 7.19749 8.50441 7.12131 8.3824 7.0689C8.2604 7.01649 8.12918 6.9889 7.9964 6.98775C7.86362 6.9866 7.73194 7.0119 7.60905 7.06218C7.48615 7.11246 7.3745 7.18671 7.2806 7.2806C7.18671 7.3745 7.11246 7.48615 7.06218 7.60905C7.0119 7.73194 6.9866 7.86362 6.98775 7.9964C6.9889 8.12918 7.01649 8.2604 7.0689 8.3824C7.12131 8.50441 7.19749 8.61475 7.293 8.707L8.707 7.293ZM11 11L11.707 11.707C11.8945 11.5195 11.9998 11.2652 11.9998 11C11.9998 10.7348 11.8945 10.4805 11.707 10.293L11 11ZM7.293 13.293C7.19749 13.3852 7.12131 13.4956 7.0689 13.6176C7.01649 13.7396 6.9889 13.8708 6.98775 14.0036C6.9866 14.1364 7.0119 14.2681 7.06218 14.391C7.11246 14.5139 7.18671 14.6255 7.2806 14.7194C7.3745 14.8133 7.48615 14.8875 7.60905 14.9378C7.73194 14.9881 7.86362 15.0134 7.9964 15.0123C8.12918 15.0111 8.2604 14.9835 8.3824 14.9311C8.50441 14.8787 8.61475 14.8025 8.707 14.707L7.293 13.293ZM7 4H17V2H7V4ZM20 7V17H22V7H20ZM17 20H7V22H17V20ZM4 17V7H2V17H4ZM7 20C6.20435 20 5.44129 19.6839 4.87868 19.1213C4.31607 18.5587 4 17.7956 4 17H2C2 18.3261 2.52678 19.5979 3.46447 20.5355C4.40215 21.4732 5.67392 22 7 22V20ZM20 17C20 17.7956 19.6839 18.5587 19.1213 19.1213C18.5587 19.6839 17.7956 20 17 20V22C18.3261 22 19.5979 21.4732 20.5355 20.5355C21.4732 19.5979 22 18.3261 22 17H20ZM17 4C17.7956 4 18.5587 4.31607 19.1213 4.87868C19.6839 5.44129 20 6.20435 20 7H22C22 5.67392 21.4732 4.40215 20.5355 3.46447C19.5979 2.52678 18.3261 2 17 2V4ZM7 2C5.67392 2 4.40215 2.52678 3.46447 3.46447C2.52678 4.40215 2 5.67392 2 7H4C4 6.20435 4.31607 5.44129 4.87868 4.87868C5.44129 4.31607 6.20435 4 7 4V2ZM16 16H8V18H16V16ZM7.293 8.707L10.293 11.707L11.707 10.293L8.707 7.293L7.293 8.707ZM10.293 10.293L7.293 13.293L8.707 14.707L11.707 11.707L10.293 10.293Z" fill="white"/>
</svg>
